<svg xmlns="http://www.w3.org/2000/svg" width="238" height="238" viewBox="0 0 238 238">
  <defs>
    <filter id="blog-a" width="104%" height="107.5%" x="-3%" y="-1.7%" filterUnits="objectBoundingBox">
      <feOffset dy="2" in="SourceAlpha" result="shadowOffsetOuter1"/>
      <feGaussianBlur in="shadowOffsetOuter1" result="shadowBlurOuter1" stdDeviation="2"/>
      <feColorMatrix in="shadowBlurOuter1" result="shadowMatrixOuter1" values="0 0 0 0 0.274551164   0 0 0 0 0.297319051   0 0 0 0 0.410926871  0 0 0 0.0647078804 0"/>
      <feMerge>
        <feMergeNode in="shadowMatrixOuter1"/>
        <feMergeNode in="SourceGraphic"/>
      </feMerge>
    </filter>
    <linearGradient id="blog-b" x1="100%" x2="0%" y1="50%" y2="50%">
      <stop offset="0%" stop-color="#FABB58"/>
      <stop offset="100%" stop-color="#FEE2BB"/>
    </linearGradient>
  </defs>
  <g fill="none" fill-rule="evenodd" filter="url(#blog-a)" transform="translate(-867 -259)">
    <g transform="translate(871 261)">
      <circle cx="115" cy="115" r="115" fill="url(#blog-b)"/>
      <path fill="#FFF" fill-rule="nonzero" d="M7.82192989,0 C3.53291658,0 0,3.53619557 0,7.82919075 L0,79.0908046 C0,83.3837997 3.53291658,86.9199953 7.82192989,86.9199953 L79.017455,86.9199953 C83.3064688,86.9199953 86.8393849,83.3837997 86.8393849,79.0908046 L86.8393849,56.0426257 L111.622132,31.2768182 C112.605948,30.2807706 112.605948,28.6778292 111.622132,27.6817816 L100.048869,16.0977749 C99.5078718,15.5429517 98.7445824,15.2637987 97.9736626,15.3388227 C97.3965774,15.4116082 96.8615915,15.6793494 96.457166,16.0977749 L86.8393849,25.7644288 L86.8393849,7.82919075 C86.8393849,3.53619557 83.3064688,0 79.017455,0 L7.82192989,0 Z M7.82192989,5.1129409 L79.017455,5.1129409 C80.5712249,5.1129409 81.7311858,6.27397857 81.7311858,7.82919075 L81.7311858,30.8773697 L59.5025381,53.1665964 C59.022327,53.641882 58.7497019,54.2881723 58.7442898,54.9641147 L58.7442898,66.4682317 C58.7444307,67.8800729 59.8878575,69.0245611 61.2983893,69.0247022 L72.7918373,69.0247022 C73.4671528,69.019285 74.1128438,68.7464068 74.5876886,68.26575 L81.7311858,61.1156217 L81.7311858,79.0908046 C81.7311858,80.6460167 80.5712249,81.8070544 79.017455,81.8070544 L7.82192989,81.8070544 C6.26816003,81.8070544 5.10819911,80.6460167 5.10819911,79.0908046 L5.10819911,7.82919075 C5.10819911,6.27397857 6.26816003,5.1129409 7.82192989,5.1129409 Z M17.6392501,17.8952932 C16.7266279,17.9379289 15.9060774,18.464719 15.486764,19.2771805 C15.0674506,20.0896419 15.1130957,21.0643082 15.6065013,21.8339462 C16.0999068,22.6035842 16.9660919,23.0512352 17.8786969,23.0082341 L68.960688,23.0082341 C69.8817859,23.0212695 70.7385435,22.53688 71.202893,21.7405471 C71.6672425,20.9442142 71.6672425,19.959313 71.202893,19.1629801 C70.7385435,18.3666472 69.8817859,17.8822577 68.960688,17.8952932 L17.8786969,17.8952932 C17.7989252,17.8915466 17.7190218,17.8915466 17.6392501,17.8952932 Z M98.2530173,21.4903297 L106.234578,29.4792999 L101.565365,34.1528474 L93.583804,26.1638773 L98.2530173,21.4903297 Z M89.9921015,29.7589138 L97.9736626,37.747884 L71.7542344,63.9117613 L63.8524889,63.9117613 L63.8524889,56.0026808 L89.9921015,29.7589138 Z M17.6392501,33.2341159 C16.7266279,33.2767516 15.9060774,33.8035417 15.486764,34.6160032 C15.0674506,35.4284646 15.1130957,36.4031309 15.6065013,37.1727689 C16.0999068,37.9424069 16.9660919,38.3900579 17.8786969,38.3470568 L68.960688,38.3470568 C69.8817859,38.3600922 70.7385435,37.8757027 71.202893,37.0793698 C71.6672425,36.2830369 71.6672425,35.2981357 71.202893,34.5018028 C70.7385435,33.7054699 69.8817859,33.2210804 68.960688,33.2341159 L17.8786969,33.2341159 C17.7989252,33.2303693 17.7190218,33.2303693 17.6392501,33.2341159 Z M17.6392501,48.5729386 C16.7266279,48.6155743 15.9060774,49.1423645 15.486764,49.9548259 C15.0674506,50.7672873 15.1130957,51.7419536 15.6065013,52.5115916 C16.0999068,53.2812296 16.9660919,53.7288806 17.8786969,53.6858795 L51.2815301,53.6858795 C52.202628,53.6989149 53.0593857,53.2145254 53.5237351,52.4181925 C53.9880846,51.6218596 53.9880846,50.6369584 53.5237351,49.8406255 C53.0593857,49.0442926 52.202628,48.5599031 51.2815301,48.5729386 L17.8786969,48.5729386 C17.7989252,48.569192 17.7190218,48.569192 17.6392501,48.5729386 Z M17.6392501,63.9117613 C16.7266279,63.954397 15.9060774,64.4811872 15.486764,65.2936486 C15.0674506,66.10611 15.1130957,67.0807763 15.6065013,67.8504143 C16.0999068,68.6200523 16.9660919,69.0677033 17.8786969,69.0247022 L51.0819911,69.0247022 C52.003089,69.0377376 52.8598466,68.5533481 53.3241961,67.7570152 C53.7885456,66.9606823 53.7885456,65.9757811 53.3241961,65.1794482 C52.8598466,64.3831153 52.003089,63.8987258 51.0819911,63.9117613 L17.8786969,63.9117613 C17.7989252,63.9080147 17.7190218,63.9080147 17.6392501,63.9117613 Z" transform="translate(71 71)"/>
    </g>
  </g>
</svg>
