<svg xmlns="http://www.w3.org/2000/svg" width="239" height="239" viewBox="0 0 239 239">
  <defs>
    <filter id="crm-a" width="104%" height="107.5%" x="-3%" y="-1.7%" filterUnits="objectBoundingBox">
      <feOffset dy="2" in="SourceAlpha" result="shadowOffsetOuter1"/>
      <feGaussianBlur in="shadowOffsetOuter1" result="shadowBlurOuter1" stdDeviation="2"/>
      <feColorMatrix in="shadowBlurOuter1" result="shadowMatrixOuter1" values="0 0 0 0 0.274551164   0 0 0 0 0.297319051   0 0 0 0 0.410926871  0 0 0 0.0647078804 0"/>
      <feMerge>
        <feMergeNode in="shadowMatrixOuter1"/>
        <feMergeNode in="SourceGraphic"/>
      </feMerge>
    </filter>
    <linearGradient id="crm-b" x1="114.306%" x2="0%" y1="50%" y2="50%">
      <stop offset="0%" stop-color="#55CD7C"/>
      <stop offset="100%" stop-color="#B2F4C7"/>
    </linearGradient>
  </defs>
  <g fill="none" fill-rule="evenodd" filter="url(#crm-a)" transform="translate(-65 -253)">
    <g transform="translate(69 255)">
      <ellipse cx="115.5" cy="115.511" fill="url(#crm-b)" rx="115.051" ry="115.061"/>
      <path fill="#FFF" fill-rule="nonzero" d="M97.2461067,63.8278656 C96.1440008,63.2252022 94.9795531,62.744327 93.7733484,62.3937406 C93.8908317,61.1322823 93.966665,59.858749 93.966665,58.5666657 C93.9596442,42.63301 84.6787527,28.1609462 70.2007321,21.5074996 C71.7896623,14.4946334 68.9270898,7.22355865 62.9837792,3.17608413 C57.0404685,-0.871390384 49.2261963,-0.871390384 43.2828857,3.17608413 C37.339575,7.22355865 34.4770026,14.4946334 36.0659327,21.5074996 C21.5879121,28.1609462 12.3070207,42.63301 12.2999998,58.5666657 C12.2999998,59.858749 12.3758331,61.1322823 12.4933164,62.3937406 C11.2871801,62.744203 10.1228353,63.2250842 9.02090816,63.8278656 C3.17633381,67.1625005 -0.238614892,73.5528753 0.237080021,80.2649952 C0.712774933,86.9771151 4.99484878,92.821994 11.2513013,95.2990165 C17.5077539,97.776039 24.6303161,96.446425 29.5717411,91.8790234 C43.6793435,101.906995 62.588313,101.906995 76.6959153,91.8790234 C81.6414644,96.4082261 88.7412116,97.7110409 94.9726321,95.2328296 C101.204053,92.7546184 105.469938,86.9317364 105.954204,80.2431178 C106.43847,73.5544992 103.055848,67.1778538 97.2463983,63.8278656 L97.2461067,63.8278656 Z M53.1333324,6.06666656 C59.5766544,6.06666656 64.7999989,11.2900111 64.7999989,17.733333 C64.7999989,24.176655 59.5766544,29.3999995 53.1333324,29.3999995 C46.6900104,29.3999995 41.4666659,24.176655 41.4666659,17.733333 C41.4738029,11.2929696 46.692969,6.07380349 53.1333324,6.06666656 Z M23.6042412,89.0870151 C19.3582693,91.5352429 14.0348183,91.0686237 10.2795128,87.9190558 C6.52420738,84.7694879 5.13783743,79.6085923 6.80939485,75.0012077 C8.48095226,70.3938231 12.8539904,67.3224387 17.7552163,67.313451 L17.7552163,67.313451 C23.0384523,67.3080279 27.6662035,70.8529185 29.0368457,75.9552661 C30.407488,81.0576138 28.1790207,86.4442884 23.6042412,89.0870151 L23.6042412,89.0870151 Z M73.3406404,70.2333321 C70.3191718,75.4840613 70.2395118,81.9267351 73.1302321,87.2505652 C61.1291192,95.6719217 45.1381596,95.6720616 33.1368994,87.2509152 C36.0380585,81.9285719 35.9576881,75.4794296 32.9247946,70.2310376 C29.8919012,64.9826455 24.3443946,61.6928026 18.2844163,61.5488406 C18.2006497,60.5637073 18.133333,59.5732073 18.133333,58.5666657 C18.1543456,45.0010516 26.0096351,32.6683667 38.2943827,26.9141245 C41.454646,32.0818889 47.0758534,35.2333195 53.133333,35.2333195 C59.1908115,35.2333195 64.8120188,32.0818889 67.9722822,26.9141245 C80.2570297,32.6683667 88.1123192,45.0010516 88.133333,58.5666657 C88.133333,59.5732073 88.0660151,60.5637073 87.9823652,61.5488406 C81.924539,61.7036089 76.3811914,64.9915518 73.3406404,70.2333321 Z M98.59979,84.8166652 C95.7666011,89.7202836 89.821016,91.8810132 84.5005744,89.9405667 C79.1801327,88.0001202 76.0216482,82.5189971 77.0106212,76.942765 C77.9995942,71.3665329 82.8503591,67.3058907 88.5136068,67.3134466 L88.5136068,67.3134466 C92.6788943,67.3206427 96.524541,69.5474765 98.6042028,73.1564485 C100.683865,76.7654205 100.682183,81.2092684 98.59979,84.8166652 L98.59979,84.8166652 Z" transform="translate(62 62)"/>
    </g>
  </g>
</svg>
