<svg xmlns="http://www.w3.org/2000/svg" width="154" height="54" viewBox="0 0 154 54">
  <g fill="none">
    <path fill="#20DBA2" d="M75.3686523,44.7558594 L85.8583984,19.6289062 L81.9985352,19.6289062 L75.4443359,35.8251953 L68.980957,19.6289062 L65.1210938,19.6289062 L75.3686523,44.7558594 Z M90.1269531,24.3666992 C90.742513,24.3666992 91.262207,24.1497396 91.6860352,23.7158203 C92.1199544,23.281901 92.3369141,22.7571615 92.3369141,22.1416016 C92.3369141,21.5260417 92.1199544,21.0063477 91.6860352,20.5825195 C91.2521159,20.1486003 90.7273763,19.9316406 90.1118164,19.9316406 C89.5063477,19.9316406 88.9866536,20.1486003 88.5527344,20.5825195 C88.1188151,21.0164388 87.9018555,21.5310872 87.9018555,22.1264648 C87.9018555,22.7521159 88.1188151,23.281901 88.5527344,23.7158203 C88.9866536,24.1497396 89.5113932,24.3666992 90.1269531,24.3666992 Z M91.8222656,43 L91.8222656,28.2568359 L88.4165039,28.2568359 L88.4165039,43 L91.8222656,43 Z M99.5419922,43 L99.5419922,35.355957 C99.5419922,32.5506185 100.470378,31.1479492 102.327148,31.1479492 C102.942708,31.1479492 103.573405,31.3800456 104.219238,31.8442383 L104.219238,31.8442383 L105.77832,28.7260742 C104.799479,28.1407878 103.861003,27.8481445 102.962891,27.8481445 C102.286784,27.8481445 101.701497,27.9742839 101.207031,28.2265625 C100.722656,28.46875 100.167643,28.917806 99.5419922,29.5737305 L99.5419922,29.5737305 L99.5419922,28.2568359 L96.1362305,28.2568359 L96.1362305,43 L99.5419922,43 Z M112.362793,43 L112.362793,31.4355469 L115.011719,31.4355469 L115.011719,28.2568359 L112.362793,28.2568359 L112.362793,22.8530273 L108.957031,22.8530273 L108.957031,28.2568359 L107.503906,28.2568359 L107.503906,31.4355469 L108.957031,31.4355469 L108.957031,43 L112.362793,43 Z M119.038086,24.3666992 C119.653646,24.3666992 120.17334,24.1497396 120.597168,23.7158203 C121.031087,23.281901 121.248047,22.7571615 121.248047,22.1416016 C121.248047,21.5260417 121.031087,21.0063477 120.597168,20.5825195 C120.163249,20.1486003 119.638509,19.9316406 119.022949,19.9316406 C118.41748,19.9316406 117.897786,20.1486003 117.463867,20.5825195 C117.029948,21.0164388 116.812988,21.5310872 116.812988,22.1264648 C116.812988,22.7521159 117.029948,23.281901 117.463867,23.7158203 C117.897786,24.1497396 118.422526,24.3666992 119.038086,24.3666992 Z M120.733398,43 L120.733398,28.2568359 L117.327637,28.2568359 L117.327637,43 L120.733398,43 Z M128.468262,43 L128.468262,35.8857422 C128.468262,34.0491536 128.700358,32.7625326 129.164551,32.0258789 C129.638835,31.2791341 130.441081,30.9057617 131.571289,30.9057617 C132.610677,30.9057617 133.327148,31.1883138 133.720703,31.753418 C134.124349,32.308431 134.326172,33.3125 134.326172,34.765625 L134.326172,34.765625 L134.326172,43 L137.74707,43 L137.74707,33.9633789 C137.74707,31.8846029 137.333333,30.3860677 136.505859,29.4677734 C135.547201,28.3880208 134.210124,27.8481445 132.494629,27.8481445 C131.001139,27.8481445 129.659017,28.4384766 128.468262,29.6191406 L128.468262,29.6191406 L128.468262,28.2568359 L125.047363,28.2568359 L125.047363,43 L128.468262,43 Z M149.37207,43.4238281 C150.754557,43.4238281 152.137044,43.0655924 153.519531,42.3491211 L153.519531,42.3491211 L153.519531,37.8535156 C152.702148,38.8424479 151.990723,39.5084635 151.385254,39.8515625 C150.759603,40.2047526 150.038086,40.3813477 149.220703,40.3813477 C147.939128,40.3813477 146.884603,39.9373372 146.057129,39.0493164 C145.239746,38.1612956 144.831055,37.0260417 144.831055,35.6435547 C144.831055,34.2913411 145.254883,33.1661784 146.102539,32.2680664 C146.950195,31.3699544 148.014811,30.9208984 149.296387,30.9208984 C150.11377,30.9208984 150.825195,31.1025391 151.430664,31.4658203 C152.046224,31.8190104 152.742513,32.4698893 153.519531,33.418457 L153.519531,33.418457 L153.519531,28.8925781 C152.227865,28.1962891 150.855469,27.8481445 149.402344,27.8481445 C147.141927,27.8481445 145.234701,28.6049805 143.680664,30.1186523 C142.126628,31.6323242 141.349609,33.4890951 141.349609,35.6889648 C141.349609,37.8888346 142.116536,39.7304688 143.650391,41.2138672 C145.184245,42.6871745 147.091471,43.4238281 149.37207,43.4238281 Z" opacity=".9"/>
    <path fill="#20C79B" d="M0.748474083,5.79570235 C1.89298542,3.92562839 2.79769439,2.32534772 3.83683802,0.821157794 C4.11660746,0.414619978 4.78878078,0.0672149344 5.28291901,0.063519136 C11.2162111,0.000690564394 17.1495033,-0.0177884273 23.0864288,0.0376485477 C23.6169007,0.0413443461 24.3072408,0.503319138 24.6342441,0.965293929 C25.8296226,2.65427377 26.9014666,4.43564856 28.1767792,6.42768386 C29.4157581,4.54282671 30.5130357,2.82058469 31.6793472,1.14638805 C31.9990837,0.688109054 32.5222889,0.0561275394 32.9546599,0.052431741 C38.8625184,-0.0214842256 44.7740103,0.00438636273 51.0815395,0.00438636273 C43.3787965,11.9492066 35.8940557,23.5614049 28.2421798,35.4249176 C27.7771086,34.7596739 27.3992382,34.2570453 27.0577014,33.7285461 C23.7767689,28.6283444 20.4994698,23.524447 17.225804,18.4205495 C15.2674179,15.36782 14.7769131,15.1682469 10.802007,15.9961057 C16.5790643,25.0655949 22.3125211,34.0648638 28.1913127,43.296968 C36.8859655,29.7629545 45.4098499,16.4913427 54.0645357,3.0201578 C55.1145794,4.73500823 56.1391896,6.18376117 56.8985638,7.76556286 C57.1492663,8.28667043 56.8985638,9.28084018 56.546127,9.83890573 C50.093263,19.9653932 43.5895319,30.0586184 37.0930675,40.1555394 C34.1827387,44.6791966 31.2687765,49.199158 28.1804126,54 C18.7481858,39.2870268 9.45039364,24.7847142 0,10.0458704 C0.850208424,9.99412926 1.41701404,9.93130068 1.98745303,9.93130068 C7.01240282,9.92390909 12.040986,9.96825867 17.0659358,9.8980385 C18.2540475,9.87955951 18.9153208,10.2897931 19.5366269,11.2876587 C21.9927846,15.2421629 24.5397765,19.1412301 27.0577014,23.0587764 C27.3810713,23.5614049 27.7407749,24.0418587 28.2385465,24.7551478 C32.3079201,18.4501158 36.261026,12.3187864 40.4648343,5.80678974 C38.7571507,5.80678974 37.441871,5.69222 36.1665584,5.86222672 C35.6397198,5.93244689 35.0692808,6.53855781 34.7313775,7.04857798 C32.5658893,10.2971847 30.4658019,13.5864452 28.1985794,17.0900621 C26.0585249,13.7675394 23.9766042,10.6889393 22.0690853,7.49946538 C21.2697441,6.16528218 20.3614018,5.73656958 18.8535535,5.75874437 C12.9384282,5.84744353 7.02330292,5.79570235 0.748474083,5.79570235 Z"/>
  </g>
</svg>
