<svg xmlns="http://www.w3.org/2000/svg" width="89" height="26" viewBox="0 0 89 26">
  <path fill="#20DBA2" d="M10.3686523,28.7558594 L20.8583984,3.62890625 L16.9985352,3.62890625 L10.4443359,19.8251953 L3.98095703,3.62890625 L0.12109375,3.62890625 L10.3686523,28.7558594 Z M25.1269531,8.36669922 C25.742513,8.36669922 26.262207,8.14973958 26.6860352,7.71582031 C27.1199544,7.28190104 27.3369141,6.75716146 27.3369141,6.14160156 C27.3369141,5.52604167 27.1199544,5.00634766 26.6860352,4.58251953 C26.2521159,4.14860026 25.7273763,3.93164062 25.1118164,3.93164062 C24.5063477,3.93164062 23.9866536,4.14860026 23.5527344,4.58251953 C23.1188151,5.0164388 22.9018555,5.53108724 22.9018555,6.12646484 C22.9018555,6.75211589 23.1188151,7.28190104 23.5527344,7.71582031 C23.9866536,8.14973958 24.5113932,8.36669922 25.1269531,8.36669922 Z M26.8222656,27 L26.8222656,12.2568359 L23.4165039,12.2568359 L23.4165039,27 L26.8222656,27 Z M34.5419922,27 L34.5419922,19.355957 C34.5419922,16.5506185 35.4703776,15.1479492 37.3271484,15.1479492 C37.9427083,15.1479492 38.5734049,15.3800456 39.2192383,15.8442383 L39.2192383,15.8442383 L40.7783203,12.7260742 C39.7994792,12.1407878 38.8610026,11.8481445 37.9628906,11.8481445 C37.2867839,11.8481445 36.7014974,11.9742839 36.2070312,12.2265625 C35.7226562,12.46875 35.1676432,12.917806 34.5419922,13.5737305 L34.5419922,13.5737305 L34.5419922,12.2568359 L31.1362305,12.2568359 L31.1362305,27 L34.5419922,27 Z M47.362793,27 L47.362793,15.4355469 L50.0117188,15.4355469 L50.0117188,12.2568359 L47.362793,12.2568359 L47.362793,6.85302734 L43.9570312,6.85302734 L43.9570312,12.2568359 L42.5039062,12.2568359 L42.5039062,15.4355469 L43.9570312,15.4355469 L43.9570312,27 L47.362793,27 Z M54.0380859,8.36669922 C54.6536458,8.36669922 55.1733398,8.14973958 55.597168,7.71582031 C56.0310872,7.28190104 56.2480469,6.75716146 56.2480469,6.14160156 C56.2480469,5.52604167 56.0310872,5.00634766 55.597168,4.58251953 C55.1632487,4.14860026 54.6385091,3.93164062 54.0229492,3.93164062 C53.4174805,3.93164062 52.8977865,4.14860026 52.4638672,4.58251953 C52.0299479,5.0164388 51.8129883,5.53108724 51.8129883,6.12646484 C51.8129883,6.75211589 52.0299479,7.28190104 52.4638672,7.71582031 C52.8977865,8.14973958 53.422526,8.36669922 54.0380859,8.36669922 Z M55.7333984,27 L55.7333984,12.2568359 L52.3276367,12.2568359 L52.3276367,27 L55.7333984,27 Z M63.4682617,27 L63.4682617,19.8857422 C63.4682617,18.0491536 63.7003581,16.7625326 64.1645508,16.0258789 C64.6388346,15.2791341 65.4410807,14.9057617 66.5712891,14.9057617 C67.6106771,14.9057617 68.3271484,15.1883138 68.7207031,15.753418 C69.124349,16.308431 69.3261719,17.3125 69.3261719,18.765625 L69.3261719,18.765625 L69.3261719,27 L72.7470703,27 L72.7470703,17.9633789 C72.7470703,15.8846029 72.3333333,14.3860677 71.5058594,13.4677734 C70.5472005,12.3880208 69.2101237,11.8481445 67.4946289,11.8481445 C66.0011393,11.8481445 64.6590169,12.4384766 63.4682617,13.6191406 L63.4682617,13.6191406 L63.4682617,12.2568359 L60.0473633,12.2568359 L60.0473633,27 L63.4682617,27 Z M84.3720703,27.4238281 C85.7545573,27.4238281 87.1370443,27.0655924 88.5195312,26.3491211 L88.5195312,26.3491211 L88.5195312,21.8535156 C87.7021484,22.8424479 86.9907227,23.5084635 86.3852539,23.8515625 C85.7596029,24.2047526 85.0380859,24.3813477 84.2207031,24.3813477 C82.9391276,24.3813477 81.8846029,23.9373372 81.0571289,23.0493164 C80.2397461,22.1612956 79.8310547,21.0260417 79.8310547,19.6435547 C79.8310547,18.2913411 80.2548828,17.1661784 81.1025391,16.2680664 C81.9501953,15.3699544 83.0148112,14.9208984 84.2963867,14.9208984 C85.1137695,14.9208984 85.8251953,15.1025391 86.4306641,15.4658203 C87.046224,15.8190104 87.742513,16.4698893 88.5195312,17.418457 L88.5195312,17.418457 L88.5195312,12.8925781 C87.2278646,12.1962891 85.8554688,11.8481445 84.4023438,11.8481445 C82.1419271,11.8481445 80.2347005,12.6049805 78.6806641,14.1186523 C77.1266276,15.6323242 76.3496094,17.4890951 76.3496094,19.6889648 C76.3496094,21.8888346 77.1165365,23.7304688 78.6503906,25.2138672 C80.1842448,26.6871745 82.0914714,27.4238281 84.3720703,27.4238281 Z" opacity=".9" transform="translate(0 -3)"/>
</svg>
