<svg xmlns="http://www.w3.org/2000/svg" width="238" height="238" viewBox="0 0 238 238">
  <defs>
    <filter id="mail-a" width="104%" height="107.5%" x="-3%" y="-1.7%" filterUnits="objectBoundingBox">
      <feOffset dy="2" in="SourceAlpha" result="shadowOffsetOuter1"/>
      <feGaussianBlur in="shadowOffsetOuter1" result="shadowBlurOuter1" stdDeviation="2"/>
      <feColorMatrix in="shadowBlurOuter1" result="shadowMatrixOuter1" values="0 0 0 0 0.274551164   0 0 0 0 0.297319051   0 0 0 0 0.410926871  0 0 0 0.0647078804 0"/>
      <feMerge>
        <feMergeNode in="shadowMatrixOuter1"/>
        <feMergeNode in="SourceGraphic"/>
      </feMerge>
    </filter>
    <linearGradient id="mail-b" x1="124.32%" x2="0%" y1="54.265%" y2="54.265%">
      <stop offset="0%" stop-color="#F3788D"/>
      <stop offset="100%" stop-color="#FFD1DA"/>
    </linearGradient>
  </defs>
  <g fill="none" fill-rule="evenodd" filter="url(#mail-a)" transform="translate(-466 -253)">
    <g transform="translate(470 255)">
      <circle cx="115" cy="115" r="115" fill="url(#mail-b)"/>
      <path fill="#FFF" fill-rule="nonzero" d="M106.567347,5.93587786 C105.795918,4.50687023 104.693878,3.29770992 103.371429,2.30839695 C101.387755,0.879389313 99.0734694,0 96.4285714,0 L11.5714286,0 C8.92653061,0 6.6122449,0.879389313 4.62857143,2.30839695 C3.30612245,3.29770992 2.20408163,4.50687023 1.43265306,5.93587786 C0.440816327,7.58473282 0,9.45343511 0,11.5419847 L0,60.4580153 C0,62.6564885 0.66122449,64.6351145 1.65306122,66.3938931 C2.53469388,67.8229008 3.63673469,68.9221374 4.95918367,69.9114504 C6.83265306,71.2305344 9.14693878,72 11.5714286,72 L96.4285714,72 C98.8530612,72 101.167347,71.2305344 103.040816,69.9114504 C104.363265,69.0320611 105.465306,67.8229008 106.346939,66.3938931 C107.44898,64.6351145 108,62.6564885 108,60.4580153 L108,11.5419847 C108,9.56335878 107.44898,7.69465649 106.567347,5.93587786 Z M11.5714286,4.83664122 L96.4285714,4.83664122 C97.5306122,4.83664122 98.522449,5.05648855 99.4040816,5.49618321 L56.8653061,38.4732824 C56.0938776,39.1328244 55.1020408,39.4625954 54.1102041,39.4625954 C53.1183673,39.4625954 52.1265306,39.1328244 51.355102,38.4732824 L8.81632653,5.49618321 C9.47755102,5.05648855 10.4693878,4.83664122 11.5714286,4.83664122 Z M4.73877551,60.5679389 L4.73877551,11.6519084 C4.73877551,10.7725191 4.95918367,9.78320611 5.28979592,9.01374046 L37.3591837,33.8564885 L5.28979592,63.2061069 C4.95918367,62.3267176 4.73877551,61.4473282 4.73877551,60.5679389 Z M96.4285714,67.2732824 L11.5714286,67.2732824 C10.4693878,67.2732824 9.47755102,67.0534351 8.59591837,66.6137405 L41.1061224,36.7145038 L48.1591837,42.210687 C49.8122449,43.4198473 51.7959184,44.189313 53.8897959,44.189313 C55.9836735,44.189313 57.9673469,43.529771 59.6204082,42.210687 L66.6734694,36.7145038 L99.1836735,66.6137405 C98.522449,67.0534351 97.5306122,67.2732824 96.4285714,67.2732824 Z M70.6408163,33.7465649 L102.710204,8.90381679 C103.040816,9.67328244 103.261224,10.5526718 103.261224,11.5419847 L103.261224,60.4580153 C103.261224,61.3374046 103.040816,62.3267176 102.710204,63.0961832 L70.6408163,33.7465649 Z" transform="translate(60 79)"/>
    </g>
  </g>
</svg>
